<?xml version="1.0"?>
<svg width="24" height="24" xmlns="http://www.w3.org/2000/svg" xmlns:svg="http://www.w3.org/2000/svg">
 <g class="layer">
  <title>Layer 1</title>
  <path d="m18.22,3.9l-0.89,0l0,-0.95c0,-0.51 -0.4,-0.95 -0.89,-0.95c-0.48,0 -0.88,0.44 -0.88,0.95l0,0.95l-7.12,0l0,-0.95c0,-0.51 -0.4,-0.95 -0.88,-0.95c-0.49,0 -0.89,0.44 -0.89,0.95l0,0.95l-0.89,0c-0.99,0 -1.78,0.86 -1.78,1.9l0,13.3c0,1.05 0.8,1.9 1.78,1.9l12.45,0c0.98,0 1.78,-0.86 1.78,-1.9l0,-13.3c0,-1.05 -0.8,-1.9 -1.78,-1.9l-0.01,0zm-6.22,2.85c1.48,0 2.67,1.27 2.67,2.85c0,1.58 -1.19,2.85 -2.67,2.85c-1.48,0 -2.67,-1.27 -2.67,-2.85c0,-1.58 1.19,-2.85 2.67,-2.85zm5.33,11.4l-10.66,0l0,-0.95c0,-1.9 3.55,-2.95 5.33,-2.95c1.78,0 5.33,1.05 5.33,2.95l0,0.95z" fill="#777777" id="svg_1"/>
 </g>
</svg>